<svg id="Component_15_2" data-name="Component 15 – 2" xmlns="http://www.w3.org/2000/svg" width="35.705" height="37.112" viewBox="0 0 35.705 37.112">
  <path id="Path_9271" data-name="Path 9271" d="M15.478,37.108c-2.921-.125-5.7-5.821-6.495-8.32a3.767,3.767,0,0,0-.618-1.329,3.756,3.756,0,0,0-1.171-.795C4.853,25.448.2,22.147.006,19.375s3.928-6.388,6.08-7.854a4.182,4.182,0,0,0,.976-.8,3.8,3.8,0,0,0,.553-1.151C8.731,6.551,10.157.851,13.7.068a5.965,5.965,0,0,1,3.619.74,22.2,22.2,0,0,1,4.8,3.08,4.849,4.849,0,0,0,1.658,1.079,4.893,4.893,0,0,0,1.51.1,20.322,20.322,0,0,1,7.106,1.1,5.277,5.277,0,0,1,2.564,1.574c1.808,2.352-.08,7.786-1.308,10.21a2.485,2.485,0,0,0-.249,2.51c.832,2.484,1.614,8.1.151,10.327-.907,1.324-2.661,1.738-4.261,1.866a21.438,21.438,0,0,1-4.419-.1,2.579,2.579,0,0,0-1.31.047,2.611,2.611,0,0,0-.788.611c-1.654,1.618-4.928,4.029-7.3,3.9M16.9,32.961a7.922,7.922,0,0,0,2.39-1.254.135.135,0,0,0,.054-.083c.015-.09-.077-.129-.153-.15q-1.681-.47-3.338-1.02-1.23-.408-2.445-.858c-.133-.049-.625-.276-.433.082a9.956,9.956,0,0,0,2.046,2.841,1.77,1.77,0,0,0,1.879.443M28.1,29.239a3.055,3.055,0,0,0,2.271-1.08,3.63,3.63,0,0,0,.434-2.177,11.781,11.781,0,0,0-.109-1.812,1.5,1.5,0,0,0-.136-.4c-.066-.066-.088-.04-.3.313a41.419,41.419,0,0,1-3.417,4.808c-.361.405-.1.405.206.4a6.264,6.264,0,0,0,1.05-.05m-5.183-.657a46.016,46.016,0,0,0,6.053-8.4,1.9,1.9,0,0,0,.3-.816,1.868,1.868,0,0,0-.155-.718,26.829,26.829,0,0,0-5.587-9.088,1.77,1.77,0,0,0-1.806-.72,24.979,24.979,0,0,0-10.27,3.2c-.583.334-.682.421-.811,1.094a25.108,25.108,0,0,0,.385,11.059,1.518,1.518,0,0,0,.268.614,1.551,1.551,0,0,0,.6.373,70.649,70.649,0,0,0,10.286,3.5.712.712,0,0,0,.738-.1M7.177,22.591a27.942,27.942,0,0,1-.469-5.85c0-.407.119-1.011-.088-1.133-.08-.047-.209-.022-.412.115a6.841,6.841,0,0,0-1.341,1.527A2.893,2.893,0,0,0,4.1,19.173c.119,1.259,2.08,2.894,3.106,3.566l-.03-.147m24.23-8.073c.4-1.028.83-3.176.335-4.188a2.613,2.613,0,0,0-1.558-1.085c-.579-.2-1.929-.787-2.533-.6-.486.151-.076.416.186.742a30.243,30.243,0,0,1,2.224,3.179c.19.312,1.365,1.919,1.233,2.234q.059-.14.113-.283M12.061,7.9a29.294,29.294,0,0,1,6.786-2.242A7.318,7.318,0,0,0,15.19,4.019a1.474,1.474,0,0,0-.735.033,1.474,1.474,0,0,0-.47.334,8.164,8.164,0,0,0-2.177,3.636l.253-.121" transform="translate(0 0)" fill="#fe6d00"/>
</svg>
