<svg id="Component_16_2" data-name="Component 16 – 2" xmlns="http://www.w3.org/2000/svg" width="80.941" height="20.265" viewBox="0 0 80.941 20.265">
  <path id="Path_9267" data-name="Path 9267" d="M178.37,49.138h8.664V57.2a11.235,11.235,0,0,1-7.923,3.278,10.469,10.469,0,0,1-10.489-10.147,10.444,10.444,0,0,1,10.489-10.118,11.234,11.234,0,0,1,7.923,3.278l-3.05,2.736a6.716,6.716,0,0,0-4.874-2.195,6.315,6.315,0,0,0,0,12.626,6.649,6.649,0,0,0,3.819-1.254V52.416h-4.56Z" transform="translate(-168.623 -40.217)" fill="#2b2624"/>
  <path id="Path_9268" data-name="Path 9268" d="M228.592,61.746a8.044,8.044,0,1,1,8.066,7.724,7.969,7.969,0,0,1-8.066-7.724m12.113,0a4.064,4.064,0,1,0-4.047,4.218,4.169,4.169,0,0,0,4.047-4.218" transform="translate(-207.588 -49.206)" fill="#2b2624"/>
  <path id="Path_9269" data-name="Path 9269" d="M280.181,61.746a8.044,8.044,0,1,1,8.066,7.724,7.969,7.969,0,0,1-8.066-7.724m12.113,0a4.064,4.064,0,1,0-4.047,4.218,4.169,4.169,0,0,0,4.047-4.218" transform="translate(-241.107 -49.206)" fill="#2b2624"/>
  <path id="Path_9270" data-name="Path 9270" d="M356.943,59.751v9.406h-3.99V60.464a2.739,2.739,0,1,0-5.472-.228v8.921h-3.99V60.464a2.725,2.725,0,1,0-5.444-.228v8.892h-4.161V54.393h4.161v1.938a4.315,4.315,0,0,1,3.99-2.28,5.24,5.24,0,0,1,4.674,2.679,5.129,5.129,0,0,1,4.788-2.679,5.419,5.419,0,0,1,5.444,5.7" transform="translate(-276.002 -49.206)" fill="#2b2624"/>
</svg>
